<svg width="1440" height="74" viewBox="0 0 1440 74" fill="none" xmlns="http://www.w3.org/2000/svg">
<path fill-rule="evenodd" clip-rule="evenodd" d="M1440 74L1406 67.7977C1371 61.5954 1303 49.1908 1234 46.1965C1166 43.2023 1097 49.1908 1029 50.9017C960 52.3988 891 49.1908 823 50.9017C754 52.3988 686 58.6012 617 52.3988C549 46.1965 480 27.8035 411 26.0925C343 24.5954 274 39.9942 206 43.2023C137 46.1965 69 37 34 32.2948L0 27.8035V0H34C69 0 137 0 206 0C274 0 343 0 411 0C480 0 549 0 617 0C686 0 754 0 823 0C891 0 960 0 1029 0C1097 0 1166 0 1234 0C1303 0 1371 0 1406 0H1440V74Z" fill="white"/>
</svg>
